<svg width="108" height="73" viewBox="0 0 108 73" fill="none" xmlns="http://www.w3.org/2000/svg">
<path d="M98.8542 72.2217C93.8476 72.2217 90.8781 69.663 90.6509 65.9776H95.4381C95.4381 67.206 96.1198 68.8414 99.0814 68.9431C101.134 68.9431 102.27 67.7147 102.27 66.7913C102.043 65.3594 100.217 65.2577 98.3998 64.9447C96.347 64.6474 94.7565 64.2327 93.6125 63.7241C92.022 62.9025 91.1053 61.1576 91.1053 59.3188C91.1053 56.0402 93.8476 53.4815 98.627 53.4815C103.187 53.4815 106.149 55.8368 106.368 59.4205H101.816C101.816 58.505 101.589 56.9635 98.8542 56.9635C97.0286 56.9635 95.8925 57.2687 95.6653 58.5989C95.6653 60.4455 99.5358 60.3438 102.497 61.0558C105.232 61.7757 107.057 63.5128 107.057 65.9776C107.057 70.4846 103.414 72.2217 98.8542 72.2217" fill="#8A8295"/>
<path d="M11.6196 41.9834L27.3368 32.8676L35.7673 47.312H14.5813" fill="#8A8295"/>
<path d="M44.6699 71.6782V53.4467Z" fill="#8A8295"/>
<path d="M44.6699 71.6782V53.4467" stroke="#8A8295" stroke-width="7.93681"/>
<path d="M4.32495 62.832C4.32495 65.6958 6.83217 68.0511 9.55877 68.0511C12.5283 68.0511 14.8004 65.6958 14.8004 62.832C14.8004 60.0699 12.5283 57.6129 9.55877 57.6129C6.83217 57.6129 4.32495 60.0699 4.32495 62.832V62.832ZM9.33155 72.2529C4.32495 72.2529 0 68.0511 0 62.832C0 57.6129 4.32495 53.5128 9.33155 53.5128C11.3843 53.5128 13.2099 54.0292 14.8004 55.1481V53.7162H19.3604V71.8382H14.8004V70.7115C13.4371 71.7365 11.3843 72.2529 9.33155 72.2529" fill="#8A8295"/>
<path d="M70.1648 47.3076L48.2974 9.21727L64.0144 -0.000155056L91.3507 47.3076" fill="#8A8295"/>
<path d="M25.2834 62.832C25.2834 65.6958 27.5634 68.0511 30.5251 68.0511C33.2517 68.0511 35.7667 65.6958 35.7667 62.832C35.7667 60.0699 33.2517 57.6129 30.5251 57.6129C27.5634 57.6129 25.2834 60.0699 25.2834 62.832ZM30.2979 72.2529C25.0562 72.2529 20.9585 68.0511 20.9585 62.832C20.9585 57.6129 25.0562 53.5128 30.2979 53.5128C32.3428 53.5128 34.1684 54.0292 35.7667 55.1481V47.4721H40.3189V71.8382H35.7667V70.7115C34.1684 71.7365 32.3428 72.2529 30.2979 72.2529" fill="#8A8295"/>
<path d="M30.0732 25.7025L46.0176 16.6962L63.5603 47.3065H46.9264V51.8135H42.3743V47.3065" fill="#8A8295"/>
<path d="M104.103 51.9556C102.959 51.9556 101.823 50.9305 101.823 49.7021C101.823 48.4736 102.959 47.4485 104.103 47.4485C105.467 47.4485 106.383 48.4736 106.383 49.7021C106.383 50.9305 105.467 51.9556 104.103 51.9556ZM104.103 47.7615C102.959 47.7615 102.278 48.677 102.278 49.7021C102.278 50.7271 102.959 51.6504 104.103 51.6504C105.239 51.6504 105.921 50.7271 105.921 49.7021C105.921 48.677 105.239 47.7615 104.103 47.7615Z" fill="#8A8295"/>
<path d="M104.573 50.9385L104.119 49.9134H103.664V50.9385H103.319V48.4815H104.346C104.573 48.4815 105.027 48.7945 105.027 49.2014C105.027 49.6083 104.8 49.8117 104.573 49.9134L105.027 50.9385H104.573ZM104.119 48.7945H103.664V49.6083H104.119C104.573 49.6083 104.573 49.5066 104.573 49.2014C104.573 48.9901 104.573 48.7945 104.119 48.7945" fill="#8A8295"/>
<path d="M74.0168 62.832C74.0168 65.6958 76.2968 68.0511 79.2585 68.0511C81.9929 68.0511 84.4923 65.6958 84.4923 62.832C84.4923 60.0699 81.9929 57.6129 79.2585 57.6129C76.2968 57.6129 74.0168 60.0699 74.0168 62.832V62.832ZM79.0234 72.2529C73.7896 72.2529 69.6919 68.0511 69.6919 62.832C69.6919 57.6129 73.7896 53.5128 79.0234 53.5128C81.0762 53.5128 82.9018 54.0292 84.4923 55.1481V53.7162H88.8251V71.8382H84.4923V70.7115C82.9018 71.7365 81.0762 72.2529 79.0234 72.2529" fill="#8A8295"/>
<path d="M53.074 62.832C53.074 65.6958 55.5812 68.0511 58.3156 68.0511C61.2773 68.0511 63.5573 65.6958 63.5573 62.832C63.5573 60.0699 61.2773 57.6129 58.3156 57.6129C55.5812 57.6129 53.074 60.0699 53.074 62.832ZM63.5573 47.4721H68.1094V71.8382H63.5573V70.7115C62.1861 71.7365 60.3606 72.2529 58.3156 72.2529C53.074 72.2529 48.749 68.0511 48.749 62.832C48.749 57.6129 53.074 53.5128 58.3156 53.5128C60.3606 53.5128 62.1861 54.0292 63.5573 55.1481V47.4721Z" fill="#8A8295"/>
</svg>
