<svg width="104" height="36" viewBox="0 0 104 36" fill="none" xmlns="http://www.w3.org/2000/svg">
<path d="M15.9248 27.8942V30H3.23741V11.3111H15.6879V13.4169H5.60643V19.471H14.3718V21.4452H5.60643V27.8942H15.9248ZM46.1761 30.2632C45.053 30.2632 44.0527 29.9825 43.1753 29.4209C42.2979 28.8594 41.6048 28.1487 41.0959 27.2888V35.6067H38.7795V16.2597H40.8326V18.8393C41.3766 17.997 42.0873 17.3214 42.9647 16.8125C43.8422 16.286 44.7985 16.0228 45.8339 16.0228C46.7815 16.0228 47.6501 16.2158 48.4398 16.6019C49.2295 16.9879 49.9139 17.5144 50.493 18.1812C51.0721 18.8481 51.5195 19.6114 51.8354 20.4713C52.1688 21.3136 52.3355 22.1998 52.3355 23.1298C52.3355 24.4284 52.0723 25.6217 51.5459 26.7097C51.037 27.7977 50.3175 28.6663 49.3874 29.3156C48.4574 29.9474 47.3869 30.2632 46.1761 30.2632ZM45.4654 28.2627C46.1498 28.2627 46.7639 28.1223 47.3079 27.8416C47.8695 27.5432 48.3433 27.1572 48.7294 26.6834C49.133 26.192 49.4401 25.6393 49.6506 25.0251C49.8612 24.4109 49.9665 23.7791 49.9665 23.1298C49.9665 22.4455 49.8437 21.7962 49.598 21.182C49.3699 20.5678 49.0365 20.0238 48.5977 19.55C48.1766 19.0762 47.6765 18.7077 47.0974 18.4445C46.5358 18.1637 45.9216 18.0233 45.2548 18.0233C44.8336 18.0233 44.3949 18.1023 43.9387 18.2602C43.5 18.4181 43.0788 18.6463 42.6752 18.9446C42.2716 19.2254 41.9294 19.55 41.6486 19.9185C41.3678 20.287 41.1836 20.6819 41.0959 21.103V25.0251C41.3591 25.6217 41.71 26.1657 42.1487 26.6571C42.5875 27.1484 43.0964 27.5432 43.6754 27.8416C44.2545 28.1223 44.8512 28.2627 45.4654 28.2627ZM62.4446 18.2865C61.2864 18.3041 60.2598 18.6024 59.3649 19.1815C58.4874 19.743 57.8645 20.5239 57.496 21.5242V30H55.1796V16.2597H57.338V19.4447C57.8118 18.4971 58.4348 17.7337 59.2069 17.1547C59.9966 16.558 60.8214 16.2246 61.6812 16.1544C61.8567 16.1544 62.0059 16.1544 62.1287 16.1544C62.2515 16.1544 62.3568 16.1632 62.4446 16.1807V18.2865ZM70.4883 30.2632C69.453 30.2632 68.5054 30.079 67.6455 29.7105C66.8032 29.3244 66.0662 28.8067 65.4344 28.1574C64.8202 27.4906 64.3377 26.7272 63.9867 25.8674C63.6533 25.0075 63.4866 24.095 63.4866 23.1298C63.4866 21.8313 63.7849 20.6468 64.3815 19.5763C64.9782 18.5059 65.8029 17.646 66.8558 16.9967C67.9263 16.3474 69.1459 16.0228 70.5147 16.0228C71.901 16.0228 73.103 16.3562 74.1208 17.023C75.1562 17.6723 75.9546 18.5322 76.5162 19.6026C77.0953 20.6555 77.3848 21.7962 77.3848 23.0246C77.3848 23.2 77.376 23.3755 77.3585 23.551C77.3585 23.7089 77.3497 23.8318 77.3322 23.9195H65.9346C66.0048 24.8145 66.2504 25.6129 66.6716 26.3149C67.1103 26.9992 67.6718 27.5432 68.3562 27.9469C69.0406 28.3329 69.7776 28.5259 70.5673 28.5259C71.4096 28.5259 72.1993 28.3154 72.9363 27.8942C73.6909 27.473 74.2086 26.9203 74.4893 26.2359L76.4899 26.7887C76.1915 27.4555 75.7441 28.0521 75.1474 28.5786C74.5683 29.105 73.8752 29.5174 73.0679 29.8157C72.2783 30.1141 71.4184 30.2632 70.4883 30.2632ZM65.8556 22.3138H75.2264C75.1562 21.4189 74.9017 20.6292 74.463 19.9448C74.0243 19.2604 73.4628 18.7252 72.7784 18.3392C72.094 17.9531 71.3394 17.7601 70.5147 17.7601C69.7074 17.7601 68.9616 17.9531 68.2773 18.3392C67.5929 18.7252 67.0313 19.2604 66.5926 19.9448C66.1715 20.6292 65.9258 21.4189 65.8556 22.3138ZM84.6714 30.2632C83.5308 30.2632 82.4603 30.079 81.4601 29.7105C80.4598 29.3244 79.5999 28.7541 78.8805 27.9995L79.7754 26.3675C80.5651 27.1045 81.3548 27.631 82.1444 27.9469C82.9341 28.2627 83.7413 28.4207 84.5661 28.4207C85.5137 28.4207 86.2858 28.2452 86.8825 27.8942C87.4791 27.5257 87.7774 26.9905 87.7774 26.2885C87.7774 25.7796 87.6195 25.4023 87.3036 25.1567C87.0053 24.911 86.5754 24.7092 86.0138 24.5513C85.4523 24.3758 84.7855 24.1827 84.0133 23.9722C83.0657 23.6914 82.2673 23.3931 81.618 23.0772C80.9687 22.7613 80.4774 22.3665 80.1439 21.8927C79.8105 21.4189 79.6438 20.8222 79.6438 20.1028C79.6438 19.2254 79.8719 18.4883 80.3282 17.8917C80.7845 17.2775 81.4074 16.8125 82.1971 16.4966C83.0043 16.1807 83.9168 16.0228 84.9346 16.0228C85.9524 16.0228 86.8737 16.1807 87.6985 16.4966C88.5232 16.8125 89.234 17.2775 89.8306 17.8917L88.7777 19.4973C88.2337 18.9358 87.6371 18.5234 86.9878 18.2602C86.3385 17.9794 85.6102 17.839 84.803 17.839C84.3292 17.839 83.8642 17.9005 83.4079 18.0233C82.9517 18.1286 82.5744 18.3304 82.2761 18.6287C81.9777 18.9095 81.8286 19.3131 81.8286 19.8395C81.8286 20.2782 81.9426 20.6292 82.1708 20.8924C82.4164 21.1381 82.7674 21.3487 83.2237 21.5242C83.6975 21.6997 84.2678 21.8927 84.9346 22.1033C85.97 22.4016 86.8649 22.6999 87.6195 22.9982C88.3916 23.2966 88.9883 23.6826 89.4094 24.1564C89.8306 24.6302 90.0412 25.2883 90.0412 26.1306C90.0412 27.4292 89.5498 28.447 88.5671 29.184C87.5844 29.9035 86.2858 30.2632 84.6714 30.2632ZM97.5242 30.2632C96.3835 30.2632 95.3131 30.079 94.3128 29.7105C93.3126 29.3244 92.4527 28.7541 91.7332 27.9995L92.6282 26.3675C93.4179 27.1045 94.2075 27.631 94.9972 27.9469C95.7869 28.2627 96.5941 28.4207 97.4189 28.4207C98.3665 28.4207 99.1386 28.2452 99.7352 27.8942C100.332 27.5257 100.63 26.9905 100.63 26.2885C100.63 25.7796 100.472 25.4023 100.156 25.1567C99.8581 24.911 99.4281 24.7092 98.8666 24.5513C98.305 24.3758 97.6382 24.1827 96.8661 23.9722C95.9185 23.6914 95.12 23.3931 94.4707 23.0772C93.8215 22.7613 93.3301 22.3665 92.9967 21.8927C92.6633 21.4189 92.4966 20.8222 92.4966 20.1028C92.4966 19.2254 92.7247 18.4883 93.1809 17.8917C93.6372 17.2775 94.2602 16.8125 95.0498 16.4966C95.8571 16.1807 96.7696 16.0228 97.7874 16.0228C98.8052 16.0228 99.7265 16.1807 100.551 16.4966C101.376 16.8125 102.087 17.2775 102.683 17.8917L101.63 19.4973C101.086 18.9358 100.49 18.5234 99.8405 18.2602C99.1912 17.9794 98.463 17.839 97.6558 17.839C97.182 17.839 96.7169 17.9005 96.2607 18.0233C95.8044 18.1286 95.4271 18.3304 95.1288 18.6287C94.8305 18.9095 94.6813 19.3131 94.6813 19.8395C94.6813 20.2782 94.7954 20.6292 95.0235 20.8924C95.2692 21.1381 95.6202 21.3487 96.0764 21.5242C96.5502 21.6997 97.1205 21.8927 97.7874 22.1033C98.8227 22.4016 99.7177 22.6999 100.472 22.9982C101.244 23.2966 101.841 23.6826 102.262 24.1564C102.683 24.6302 102.894 25.2883 102.894 26.1306C102.894 27.4292 102.403 28.447 101.42 29.184C100.437 29.9035 99.1386 30.2632 97.5242 30.2632Z" fill="#F7F7F7"/>
<path d="M18.1675 28.3232L51.3194 3.63453L51.7839 4.13739L19.9365 30.6431L18.1675 28.3232Z" fill="#EFEDEE"/>
<path d="M0 9.00001C0 9.00001 22.1236 -0.238412 33.55 0.00471588C44.5121 0.237962 50.5682 3.40835 50.5682 3.40835L42.3022 9.48626C42.3022 9.48626 40.1533 6.16542 27.9584 4.3808C17.9906 2.9221 1.94493 8.27067 1.94493 8.27067L0 9.00001Z" fill="#EFEDEE"/>
<path d="M36.4693 31.652L19.6941 15.0056L21.3932 13.2933L37.4187 32.495L36.4693 31.652Z" fill="#EFEDEE"/>
<circle cx="27.9585" cy="22.1235" r="0.598113" fill="white"/>
</svg>
