<svg width="32" height="32" viewBox="0 0 32 32" fill="none" xmlns="http://www.w3.org/2000/svg">
<path d="M2.5 11L8 7.5L15.5 4.5H17.5L18 6L17.5 8L14.5 10H17.5L24 9.5H28.5L30.5 11.5L30 14L28.5 15H24H19L20 16.5L19 18.5L19.5 21L18.5 22L17 23L18 24V25L17.5 26.5L15 27.5L12 28L8 27.5L4 25L2.5 20.5L1.5 15L2.5 11Z" fill="#F7F7F7"/>
<path d="M16.1255 27.4659C17.7955 27.1379 18.3875 25.6994 18.3875 24.5674C18.3875 24.0529 18.2735 23.5809 18.0745 23.2149C19.5885 22.4894 19.7695 21.3134 19.7695 20.7959C19.7695 20.2004 19.5565 19.6014 19.1805 19.0994C19.819 18.6384 20.1925 17.7724 20.1925 16.6734C20.1925 16.2524 20.132 15.7884 20.004 15.3839C22.179 15.4389 25.876 15.5629 27.209 15.6219C28.647 15.6859 29.5255 15.1489 30.0095 14.6879C30.6385 14.0884 30.999 13.2274 30.999 12.3254C30.999 11.3989 30.6245 10.5204 29.9715 9.91335C29.483 9.45935 28.6065 8.93835 27.2025 9.03435C24.8855 9.19285 18.909 9.61735 15.637 9.85085C17.6025 9.08185 18.3165 7.58135 18.3165 6.46085C18.3165 5.63985 17.9665 4.91535 17.3305 4.41985C16.742 3.96085 15.86 3.86735 15.1855 4.19085C13.017 5.23035 10.7235 5.95785 9.34155 6.04435C7.90105 6.13435 3.45855 9.56035 2.23505 10.8254C1.21255 11.8814 0.998047 13.9439 0.998047 15.4879C0.998047 19.6649 2.78705 25.6414 5.83705 26.8784C9.13105 28.2129 11.935 28.2879 16.1255 27.4659ZM5.52155 25.6144C2.30055 22.9894 1.78605 15.1499 3.46905 12.4259C4.49155 10.7709 7.94855 7.85185 10.4065 7.44535C15.107 6.66735 14.8935 4.64535 16.779 5.27135C17.895 5.64185 18.4805 8.36535 14.7945 9.24035C13.8465 9.46585 11.511 11.1454 11.511 11.1454C11.511 11.1454 24.055 10.2069 26.678 10.3404C30.5175 10.5349 30.427 14.5224 27.49 14.6149C25.9455 14.6639 17.9485 14.6149 17.9485 14.6149C17.9485 14.6149 19.1925 15.0929 19.1925 16.6744C19.1925 18.5454 17.215 18.6619 17.215 18.6619C17.215 18.6619 18.7265 19.0924 18.7265 20.4224C18.7265 22.2839 15.8835 22.8969 15.8835 22.8969C15.8835 22.8969 17.708 23.3619 17.708 24.8049C17.708 25.8049 17.072 26.5549 15.9985 26.7659C12.012 27.5479 7.81005 27.4784 5.52155 25.6144Z" fill="black"/>
<path d="M14.9505 23.4024L15.6485 22.8964C15.3695 22.6874 15.0205 22.6329 14.691 22.6659C14.3595 22.7039 14.066 22.8289 13.8275 22.9529C13.586 23.0789 13.3905 23.2079 13.177 23.3424C12.9655 23.4849 12.731 23.6199 12.4505 23.8299C13.008 24.2489 13.7865 24.1179 14.2915 23.8349C14.5505 23.6989 14.7505 23.5489 14.9505 23.4024ZM16.0335 19.2899L16.7315 18.7829C16.4525 18.5739 16.1035 18.5204 15.774 18.5534C15.4425 18.5914 15.149 18.7164 14.9105 18.8404C14.669 18.9664 14.4735 19.0944 14.26 19.2299C14.0485 19.3724 13.814 19.5064 13.5335 19.7164C14.091 20.1354 14.8695 20.0044 15.3745 19.7224C15.6335 19.5859 15.8335 19.4364 16.0335 19.2899ZM16.7985 15.3599L17.4965 14.8529C17.2175 14.6444 16.8685 14.5899 16.539 14.6234C16.207 14.6614 15.914 14.7864 15.675 14.9104C15.4335 15.0364 15.2385 15.1649 15.025 15.2999C14.813 15.4419 14.5785 15.5764 14.298 15.7869C14.8555 16.2054 15.6345 16.0744 16.1395 15.7924C16.398 15.6564 16.5975 15.5064 16.7985 15.3599Z" fill="black"/>
</svg>
