<svg width="107" height="40" viewBox="0 0 107 40" fill="none" xmlns="http://www.w3.org/2000/svg">
<path d="M1.52539 33.1523H2.36831V35.6807H5.59966V33.1523H6.41456V39.0518H5.59966V36.3549H2.36831V39.0518H1.52539V33.1523Z" fill="#8A8295"/>
<path d="M19.4798 36.9167C19.4798 38.4057 18.5806 39.1922 17.0352 39.1922C15.4617 39.1922 14.5063 38.4899 14.5063 36.9167V33.1523H15.3493V36.9167C15.3493 37.9562 15.9674 38.5461 17.0352 38.5461C18.0748 38.5461 18.6649 37.9562 18.6649 36.9167V33.1523H19.4798V36.9167Z" fill="#8A8295"/>
<path d="M29.6801 39.2202C27.8256 39.3326 26.7017 37.7594 26.7017 36.2143C26.7017 34.5006 27.6851 33.0117 29.652 33.0117C31.0008 33.0117 32.0684 33.5736 32.2932 34.9782H31.4784C31.3098 34.0792 30.5511 33.6578 29.652 33.6578C28.1347 33.6578 27.5165 34.922 27.5165 36.1862C27.5165 37.4223 28.3033 38.6022 29.7925 38.5741C30.5511 38.546 31.1693 38.4055 31.4784 37.8998C31.7032 37.5908 31.6469 37.029 31.6188 36.6076H29.652V35.9334H32.3494C32.3494 35.9334 32.3494 37.4784 32.3494 38.1527C31.647 39.0235 30.804 39.164 29.6801 39.2202Z" fill="#8A8295"/>
<path d="M42.4367 38.546C43.9259 38.546 44.5722 37.2818 44.5722 36.1019C44.5722 34.922 43.9259 33.6578 42.4367 33.6578C40.9194 33.6578 40.3012 34.922 40.3012 36.1019C40.3012 37.2818 40.9194 38.546 42.4367 38.546ZM42.4367 33.0117C44.4036 33.0117 45.387 34.5006 45.387 36.1019C45.387 37.7032 44.4036 39.1921 42.4367 39.1921C40.4698 39.1921 39.4863 37.7032 39.4863 36.1019C39.4863 34.5006 40.4698 33.0117 42.4367 33.0117Z" fill="#8A8295"/>
<path d="M61.9369 35.6807H63.5666C64.4939 35.6807 64.8873 35.3716 64.8873 34.7536C64.8873 33.9389 64.2972 33.7985 63.5666 33.7985H61.9369V35.6807ZM61.9369 38.4057H63.9881C64.6906 38.4057 65.1401 37.9843 65.1401 37.3381C65.1401 36.5796 64.4939 36.3549 63.7914 36.3549H61.9369V38.4057ZM61.1221 33.1523H63.3419C63.9039 33.1523 64.6062 33.1523 64.9716 33.349C65.3931 33.6018 65.7021 34.0232 65.7021 34.5851C65.7021 35.2312 65.365 35.7088 64.803 35.9335C65.5616 36.074 65.9831 36.6358 65.9831 37.3662C65.9831 38.2371 65.3087 39.0518 64.1005 39.0518H61.1221V33.1523Z" fill="#8A8295"/>
<path d="M76.295 38.546C77.8123 38.546 78.4305 37.2818 78.4305 36.1019C78.4305 34.922 77.8123 33.6578 76.295 33.6578C74.8058 33.6578 74.1595 34.922 74.1595 36.1019C74.1595 37.2818 74.8058 38.546 76.295 38.546ZM76.295 33.0117C78.2619 33.0117 79.2735 34.5006 79.2735 36.1019C79.2735 37.7032 78.2619 39.1921 76.295 39.1921C74.3282 39.1921 73.3447 37.7032 73.3447 36.1019C73.3447 34.5006 74.3282 33.0117 76.295 33.0117Z" fill="#8A8295"/>
<path d="M90.5971 34.8939C90.5128 34.0231 89.9227 33.6578 89.0798 33.6578C88.3773 33.6578 87.7029 33.9107 87.7029 34.6692C87.7029 35.3996 88.6864 35.512 89.6698 35.7367C90.6533 35.9334 91.6368 36.2705 91.6368 37.4504C91.6368 38.6864 90.3442 39.1921 89.2203 39.1921C87.8435 39.1921 86.6914 38.546 86.6914 37.1132H87.4501C87.4501 38.0965 88.3211 38.546 89.2484 38.546C90.0071 38.546 90.8219 38.3212 90.8219 37.4504C90.8219 36.6357 89.8384 36.5233 88.855 36.2986C87.8716 36.1019 86.86 35.821 86.86 34.7254C86.86 33.5455 87.984 33.0117 89.1078 33.0117C90.3723 33.0117 91.3276 33.5736 91.3839 34.8939H90.5971Z" fill="#8A8295"/>
<path d="M103.916 34.8939C103.804 34.0231 103.214 33.6578 102.371 33.6578C101.696 33.6578 100.994 33.9107 100.994 34.6692C100.994 35.3996 101.977 35.512 102.989 35.7367C103.972 35.9334 104.956 36.2705 104.956 37.4504C104.956 38.6864 103.663 39.1921 102.539 39.1921C101.162 39.1921 99.9824 38.546 99.9824 37.1132H100.769C100.769 38.0965 101.64 38.546 102.567 38.546C103.298 38.546 104.141 38.3212 104.141 37.4504C104.141 36.6357 103.129 36.5233 102.146 36.2986C101.162 36.1019 100.179 35.821 100.179 34.7254C100.179 33.5455 101.275 33.0117 102.427 33.0117C103.663 33.0117 104.647 33.5736 104.675 34.8939H103.916Z" fill="#8A8295"/>
<path d="M8.77458 1.96948V12.5885H12.6241C12.6241 12.5885 12.9613 12.5604 13.158 12.5042C15.4058 12.3075 16.8389 9.61066 16.9793 7.64417C17.2041 5.53723 15.9116 2.05375 12.6803 1.96948C11.7249 1.94138 8.77458 1.96948 8.77458 1.96948ZM8.77458 13.8245V26.5505H12.2588C12.2588 26.5505 14.2257 26.6909 15.9959 25.2582C17.738 23.8536 18.6372 21.7747 18.4405 19.3869C18.3 17.2518 16.6703 14.2178 13.0175 13.8245C11.0787 13.8245 8.77458 13.8245 8.77458 13.8245ZM16.9793 0.733398C19.8735 0.901956 21.7561 2.44705 21.9247 2.64369C23.4139 4.02023 23.8635 6.09909 23.4982 8.09366C23.0206 11.4367 18.862 12.8413 18.862 12.8413C22.3462 13.2627 24.9593 15.8753 25.3527 18.6846C25.6899 21.4376 24.6784 23.8817 22.4024 25.5953C20.0983 27.309 16.7265 27.8708 14.9 27.8708C14.9 27.8708 0.794583 27.8708 0.00786855 27.8708C0.00786855 27.4213 0.00786855 27.0842 0.00786855 26.6909C1.91854 26.719 2.14336 26.719 2.14336 25.9605C2.11526 23.0951 2.14336 3.09317 2.14336 2.55942C2.14336 1.94138 1.83423 1.91329 0.00786855 1.91329C-0.0202339 1.43572 0.0359723 0.733398 0.0359723 0.733398H16.9793Z" fill="#8A8295"/>
<path d="M39.9636 2.19414C38.1092 3.43022 36.8166 6.26758 36.1985 8.62735C35.215 12.1951 35.4117 16.409 36.3951 20.7352C37.4067 25.0615 40.1884 26.5785 41.8463 26.9437C44.9371 27.646 46.9602 25.8481 48.056 24.1906C50.1915 20.96 50.7254 14.302 50.051 10.4815C49.4328 6.94179 48.4775 4.46964 46.623 2.81218C44.5437 0.986165 41.5652 1.12663 39.9636 2.19414ZM56.6261 18.9935C55.3335 22.8422 52.7485 25.2582 49.7701 26.8313C45.8643 28.9383 40.2728 29.2754 36.367 26.9437C33.9506 25.511 27.797 21.6904 28.6118 12.6727C28.7805 10.7343 29.7639 5.87427 35.187 2.22224C38.8959 -0.193724 44.2346 -0.896038 49.2081 1.40755C56.9633 4.94722 58.593 13.684 56.6261 18.9935Z" fill="#8A8295"/>
<path d="M79.4144 1.99767C79.4425 4.02034 79.4144 8.20613 79.4144 8.20613L78.431 8.23422C77.8409 5.62161 76.5764 3.3742 74.4129 2.33478C72.3336 1.32344 69.1866 0.817786 67.1353 2.6157C65.9271 3.68323 65.7585 4.77883 66.18 6.0149C66.9106 7.84093 68.9336 8.40278 70.5072 9.10509C71.7997 9.61076 74.5533 10.5097 74.5533 10.5097C77.616 11.5772 81.016 13.6561 81.9432 17.1115C82.3647 18.6004 82.3647 20.2859 82.0275 21.8029C81.2688 25.174 79.1053 25.9887 77.869 26.8315C77.2508 27.2529 71.4625 29.4722 64.4941 27.1967C63.061 26.7191 61.4032 26.1573 61.4032 26.1573V18.6004C61.4032 18.6004 62.1619 18.6285 62.471 18.6285C62.9486 19.8364 63.3702 21.2973 64.3817 22.7581C66.7419 26.1854 70.0857 27.2248 73.7666 26.4382C75.2277 26.1011 76.8293 25.0898 77.2508 23.5728C77.7847 21.8591 77.616 19.0218 72.4459 17.1115C68.7088 15.3978 64.0164 14.6955 61.7967 10.5378C60.9256 8.20613 61.1785 4.1608 64.0445 2.19431C66.9387 0.227834 69.7485 -0.221643 73.1484 0.227834C76.5203 0.705409 77.4194 1.15489 79.4144 1.99767Z" fill="#8A8295"/>
<path d="M104.029 1.99767C104.057 4.02034 104.029 8.20613 104.029 8.20613L103.045 8.23422C102.455 5.62161 101.191 3.3742 99.0272 2.33478C96.9479 1.32344 93.8009 0.817786 91.7496 2.6157C90.5415 3.68323 90.3728 4.77883 90.7943 6.0149C91.5249 7.84093 93.548 8.40278 95.1215 9.10509C96.4141 9.61076 99.1677 10.5097 99.1677 10.5097C102.23 11.5772 105.63 13.6561 106.558 17.1115C106.979 18.6004 106.979 20.2859 106.642 21.8029C105.883 25.174 103.72 25.9887 102.483 26.8315C101.865 27.2529 96.0768 29.4722 89.1084 27.1967C87.6754 26.7191 86.0175 26.1573 86.0175 26.1573V18.6004C86.0175 18.6004 86.7762 18.6285 87.0853 18.6285C87.5629 19.8364 87.9845 21.2973 88.996 22.7581C91.3563 26.1854 94.7 27.2248 98.3809 26.4382C99.842 26.1011 101.444 25.0898 101.865 23.5728C102.399 21.8591 102.23 19.0218 97.0603 17.1115C93.3231 15.3978 88.6307 14.6955 86.411 10.5378C85.5399 8.20613 85.7928 4.1608 88.6869 2.19431C91.553 0.227834 94.3628 -0.221643 97.7347 0.227834C101.135 0.705409 102.034 1.15489 104.029 1.99767Z" fill="#8A8295"/>
</svg>
