<svg width="106" height="38" viewBox="0 0 106 38" fill="none" xmlns="http://www.w3.org/2000/svg">
<path d="M11.6506 37.6267C8.50356 37.5017 5.92883 36.6406 3.91561 35.0412C3.53139 34.7357 2.61584 33.8196 2.30869 33.4332C1.4923 32.4067 0.93726 31.4076 0.567055 30.2992C-0.572121 26.887 0.0141721 22.4095 2.24402 17.4956C4.15325 13.2886 7.09926 9.11611 12.239 3.33725C12.9961 2.48691 15.2508 0 15.2653 0C15.2707 0 15.1479 0.212858 14.9932 0.472056C13.6568 2.71053 12.5133 5.34722 11.8904 7.62989C10.8897 11.2926 11.0104 14.4358 12.2439 16.8732C13.0947 18.5523 14.5535 20.0067 16.1938 20.8107C19.0654 22.2177 23.2697 22.3341 28.4041 21.1513C28.7576 21.0694 46.2742 16.4194 67.3301 10.8179C88.3859 5.21575 105.616 0.635875 105.619 0.639647C105.625 0.644497 56.7003 21.5797 31.3027 32.4406C27.2806 34.1602 26.205 34.5945 24.3141 35.2584C19.4804 36.9559 15.1505 37.7658 11.6506 37.6267Z" fill="#8A8295"/>
</svg>
