<svg width="108" height="46" viewBox="0 0 108 46" fill="none" xmlns="http://www.w3.org/2000/svg">
<path d="M102.246 44.0304L86.2789 0.0290354L86.2679 0H85.9528L82.6647 9.04216L76.6786 25.5035L76.6646 25.4905C74.5899 23.6582 71.6629 22.5128 67.9766 22.0863L66.8522 21.9701L67.9676 21.827C74.0467 20.7336 78.1331 16.8909 78.1331 12.2611C78.1331 5.91231 72.167 1.48084 63.6211 1.48084H45.8399V1.80223H51.0067V34.6077L38.4583 0.0290354L38.4473 0H38.1322L34.8441 9.04216L22.1617 43.9172L22.0837 43.9262C21.8669 43.953 21.6525 43.9743 21.4404 43.9903C21.1213 44.0153 20.8042 44.0304 20.4861 44.0304H7.67166L32.0301 1.80222L32.2112 1.48483H2.41984V14.548H2.73595C2.79197 8.18511 6.49425 1.80222 14.6741 1.80222H24.5425L0 44.3468H33.0635V31.8313H32.7474C32.7043 37.3771 29.5633 42.6446 22.7329 43.8341L22.5158 43.8712L27.7176 29.5605H42.2897L47.5405 44.0304H42.3607V44.3468H62.6908V44.0304C62.6908 44.0304 59.465 44.5013 57.4889 44.0304C49.1972 42.0543 57.4889 22.2034 57.4889 22.2034H63.491C69.5991 22.2034 73.1024 24.9348 73.1024 29.6947V33.5664C73.1024 33.993 73.1314 34.6167 73.1634 35.1384V35.1574L69.9373 44.0284H65.7228V44.3448H74.4468V44.0284H70.2774L73.2154 35.9504C73.2214 36.0285 73.2244 36.0755 73.2244 36.0755L73.3054 36.8034L73.3835 37.285C73.8736 40.2637 75.012 42.4534 76.7656 43.7931L77.0177 43.9763C78.3502 44.9034 80.0058 45.373 81.9414 45.373C84.5053 45.373 86.2149 44.7332 87.6264 43.2274L87.4413 43.0532C86.1409 44.2546 85.0495 44.7412 83.682 44.7412C81.3522 44.7412 80.1328 41.9127 80.1328 39.1233V33.6986C80.1452 32.3525 79.9346 31.0138 79.5096 29.7367L79.4516 29.5685V29.5625H90.1103L95.3611 44.0324H90.1813V44.3488H107.774V44.0324L102.246 44.0304ZM27.8337 29.2441L35.0121 9.50473L42.1746 29.2441H27.8337ZM57.4919 21.886V1.80222H62.0735C68.1937 1.80222 71.4248 5.44372 71.4248 12.3292C71.4248 19.6523 69.5701 21.886 63.491 21.886H57.4919ZM79.3275 29.2441L79.2965 29.166C78.8229 28.0114 78.1333 26.9579 77.2648 26.0622L76.9647 25.7618L76.9327 25.7318L82.8287 9.50473L89.9912 29.2441H79.3275Z" fill="#8A8295"/>
</svg>
